<?xml version="1.0" standalone="no"?><!DOCTYPE svg PUBLIC "-//W3C//DTD SVG 1.1//EN" "http://www.w3.org/Graphics/SVG/1.1/DTD/svg11.dtd"><svg t="1514019466451" class="icon" style="" viewBox="0 0 1024 1024" version="1.1" xmlns="http://www.w3.org/2000/svg" p-id="1019" xmlns:xlink="http://www.w3.org/1999/xlink" width="128" height="128"><defs><style type="text/css"></style></defs><path d="M507.912 376.04s1.888-5-22.176-9.888c0 0 11.872 19.144 2.464 32.136 0 0-5.832 4.504 2.464 9.888 0 0 2.736 1.832 14.784 2.472 0-0.008 24.096-19.28 2.464-34.608z m145.36 32.128c10.008-10.256 17.24-4.944 17.24-4.944 9.672 9.032-12.312 24.72-12.312 24.72 32.52-17.4 24.632-29.664 24.632-29.664-13.192-14.16-32.024 4.944-32.024 4.944-3.28 5.384 2.464 4.944 2.464 4.944zM49.24 746.216C37.584 768.16 28.56 790.536 24 812.376c0 0 7.496-27.176 25.24-66.16z m925.632-270.016c-119.832-63.016-381.248 62.296-536.608 149.16-5.096-34.736-9.456-68.848-11.824-97.192C513.296 454.624 563.84 438.352 563.84 438.352c6.456 1.408-9.128 19.256-9.128 19.256-6.576 6.256 0 7.424 0 7.424 42.52-28.256 56.672-29.664 56.672-29.664 14.52-0.848-19.712 24.72-19.712 24.72-1.688 5.656 2.464 4.944 2.464 4.944 51.312-37.256 49.28-27.192 49.28-27.192-0.8 4.672-5.528 10.296-11.752 15.888a666.128 666.128 0 0 0-34.216 24.2c-2.016 1.2-3.312 1.936-3.312 1.936 0.688-0.312 1.408-0.688 2.112-1.024-2.888 2.184-4.568 3.504-4.568 3.504 64.72-34.304 64.056-19.784 64.056-19.784 6.856 22.832-155.208 128.544-155.208 128.544 67.648-32.12 123.176-76.632 123.176-76.632 76.768-54.672 68.992-79.104 68.992-79.104-1.648-13.92-24.408-4.104-47.904 10.08 3.744-3.128 6.024-5.144 6.024-5.144 22.56-38.416-56.672 22.248-56.672 22.248 22-17.264 34.496-32.136 34.496-32.136 2.84-28.752-48.648 11.232-67.288 26.568-2.056 1.848-4.248 3.712-6.624 5.56 0 0 2.528-2.192 6.624-5.56 13.768-12.4 20.488-24.104 20.488-24.104-0.544-11.544-12.208-10.288-25.368-5.112 180.384-162.424 5.656-108.6 5.656-108.6-44.488 13.968-88.144 34.192-128.832 56.8 5.56-49.128 14.336-100.568 27.816-124.208 0 0 10.36-13.776-4.928-19.776 0 0-25.304 52.08-37.2 152.104-9.36 5.416-18.528 10.928-27.504 16.512 0.272-31.584 0.648-59.184 0.648-59.184l-9.856-19.784v84.736c-101.984 64.896-174.928 135.28-174.928 135.28 39.344-64.704 59.128-143.384 59.128-143.384C239.36 495.2 123.576 630.64 123.576 630.64a2137.616 2137.616 0 0 0-23 23.536c-0.144-1.856-1.888-1.528-1.64-6.232 0 0-2.104-5.744 19.112-31.232l-26.288 27.616s-6.896 6.888-2 21.2c-52 55.088-59.808 71.408-59.808 71.408 25.776-28.872 46.296-43.28 46.296-43.28a615.64 615.64 0 0 0-27 52.544c50.568-95.2 150.704-182.312 150.704-182.312a1228.84 1228.84 0 0 1 158.312-126.088c7.552 12.048 26.848 42.848 32.384 51.88-80.304 73.736-148.816 170.64-148.816 170.64C327.976 552.656 397.04 499.632 397.04 499.632c5.592-4.704 10.856-9.016 15.912-13.104-0.056 16.648 0.288 34.024 1.16 52.24-7.888 6.912-15.984 14.16-24.416 22 0 0 9.648-8.08 24.432-21.744 1.424 29.632 4.192 61.328 8.656 95.056-6.976 3.952-13.696 7.816-20.128 11.544l-61.72-95.352 50 102.184c-46.56 27.304-75.728 46.328-75.728 46.328a2396.08 2396.08 0 0 1 76.256-45.24L470.952 816s-18.696-95.84-32.36-188.44C782.408 443.64 937.92 488.56 937.92 488.56l-54.2 34.6v-22.24c-28.696 27.552-39.424 51.912-39.424 51.912 163.704-57.568 130.576-76.632 130.576-76.632z m-613.096-40.712c5.696-3.768 11.008-7.208 15.904-10.32-4.656 9.88-11.096 11.128-15.904 10.32z m20.488 19.656l-14.784-14.832c9.016 3.656 12.544-7.384 13.92-17.496l0.864-0.544v32.872z m30.856 14.808a634.528 634.528 0 0 0-21.424 18.784c-0.592-10.144-0.56-41.104-0.352-72.096 14.56-8.896 22.944-13.416 22.944-13.416l2.808-1.696a893.632 893.632 0 0 0-3.976 68.424z m18.352-77.008c115.608-67.544 160.232-56.024 160.232-56.024 33.512 14.136-59.2 97.928-59.2 97.928-2.296 1.448-4.248 2.752-5.968 3.944 24.928-32.888 6.016-30.624 6.016-30.624-32.912 2.296-70 22.84-106.392 51.272 1.072-17.712 2.776-41.288 5.312-66.496z m-6.296 83.872c79.312-61.744 85.2-41.448 85.2-41.448-28.2 36.544-60.04 69.216-83.984 92.104-1.144-13.8-1.824-26.264-1.864-36.656 0 0 0.2-5.208 0.648-14z m-21.744 170.008c6.592-3.696 13.128-7.304 19.592-10.832a1258.96 1258.96 0 0 0 8.472 54.184l-28.064-43.352z" fill="#1296db" p-id="1020"></path></svg>